<?xml version="1.0" encoding="utf-8"?>
<svg xmlns="http://www.w3.org/2000/svg" viewBox="302.503 -1000.149 869.459 2805.8513" width="869.459px" height="2805.85px" preserveAspectRatio="none"><path style="stroke: rgb(0, 0, 0); fill: rgba(216, 216, 216, 0);" d="M 1171.962 -1000.149 L 1161.449 -955.09 L 1141.923 -914.537 L 1098.366 -867.977 L 1066.825 -815.408 L 1027.774 -776.357 L 982.716 -722.287 L 919.634 -671.22 L 841.532 -611.142 L 788.963 -567.585 L 701.85 -490.986 L 659.795 -432.409 L 599.717 -334.782 L 554.658 -226.641 L 536.635 -181.582 L 532.129 -83.955 L 541.14 -2.85 L 560.666 73.75 L 601.219 169.875 L 647.779 253.985 L 734.893 342.601 L 796.473 401.177 L 841.532 455.247 L 886.59 527.341 L 922.12 597.623 L 939.331 647.823 L 957.26 708.064 L 968.017 789.102 L 972.32 859.143 L 970.169 912.212 L 962.28 979.625 L 946.503 1034.845 L 911.362 1082.894 L 869.768 1135.246 L 807.376 1215.248 L 788.013 1240.349 L 741.398 1277.64 L 703.389 1312.063 L 645.3 1361.866 L 610.877 1399.875 L 559.242 1435.732 L 493.982 1504.34 L 455.256 1549.52 L 424.418 1592.549 L 377.804 1655.658 L 354.138 1696.536 L 310.392 1780.601 L 302.503 1805.702" id="object-0" transform="matrix(1, 0, 0, 1, 4.547473508864641e-13, 0)"/></svg>