<?xml version="1.0" encoding="UTF-8"?>
<svg version="1.1" xmlns="http://www.w3.org/2000/svg" width="2560" height="3000">
<path d="M0 0 C1.37478516 0.01740234 1.37478516 0.01740234 2.77734375 0.03515625 C3.69644531 0.04417969 4.61554688 0.05320313 5.5625 0.0625 C6.27277344 0.07410156 6.98304687 0.08570313 7.71484375 0.09765625 C4.19691305 7.33712779 0.57125723 14.47715726 -3.41015625 21.47265625 C-7.1788042 28.09639005 -10.84775857 34.76914523 -14.47265625 41.47265625 C-15.02131348 42.48690674 -15.5699707 43.50115723 -16.13525391 44.54614258 C-19.02496011 49.89505793 -21.90393172 55.24959681 -24.7734375 60.609375 C-31.37785094 72.93620321 -38.09630671 85.18303015 -45.015625 97.3359375 C-47.24829786 101.25903394 -49.45746285 105.19409005 -51.6484375 109.140625 C-59.2301123 122.79390459 -67.05106895 136.28321421 -75.05960083 149.69041443 C-77.69222645 154.09858395 -80.31148011 158.51453559 -82.92578125 162.93359375 C-92.23285629 178.66001629 -101.62716278 194.32937039 -111.13993835 209.9322052 C-113.63395331 214.02413707 -116.11797834 218.1220228 -118.59765625 222.22265625 C-147.24022325 269.57816201 -177.16308935 315.75320095 -213.09765625 357.97265625 C-213.53456787 358.48892578 -213.97147949 359.00519531 -214.42163086 359.53710938 C-223.56536085 370.21582387 -233.3320771 380.31126845 -243.28662109 390.22949219 C-245.05164169 391.98909105 -246.81116758 393.75406022 -248.5703125 395.51953125 C-253.78130701 400.73358763 -258.99386407 405.88067808 -264.60791016 410.66552734 C-267.17657702 412.85880243 -269.62615876 415.17053411 -272.09765625 417.47265625 C-276.71815174 421.74160819 -281.47622377 425.77796919 -286.37890625 429.72265625 C-289.08656796 431.93536904 -291.73680534 434.1988546 -294.37792969 436.48974609 C-300.87345433 442.12216678 -307.51325241 447.50516975 -314.38867188 452.66943359 C-316.51185881 454.26838359 -318.62489622 455.88030641 -320.73828125 457.4921875 C-336.23575224 469.26519304 -352.15204588 480.43507811 -368.38208008 491.17456055 C-391.95756349 506.78185645 -415.23344892 522.87082387 -438.09375 539.5078125 C-440.3709502 541.15989892 -442.65516586 542.80185615 -444.94140625 544.44140625 C-453.85352767 550.83698879 -462.62996346 557.3584985 -471.28515625 564.09765625 C-472.88812952 565.33071261 -474.49342239 566.5607041 -476.09887695 567.79052734 C-487.30454801 576.37968853 -498.42538225 585.07333701 -509.28515625 594.09765625 C-509.79401367 594.52014648 -510.30287109 594.94263672 -510.82714844 595.37792969 C-518.28536961 601.5848019 -525.55347847 607.9663611 -532.65478516 614.58056641 C-534.4273185 616.2299408 -536.20576427 617.87280709 -537.984375 619.515625 C-552.24433839 632.69897824 -552.24433839 632.69897824 -565.41796875 646.94921875 C-567.3131767 649.12989736 -569.26498189 651.25182543 -571.23046875 653.36914062 C-576.00909655 658.51987469 -580.56899343 663.78174183 -584.9765625 669.2578125 C-587.05606278 671.81584415 -589.17567907 674.32908419 -591.31958008 676.83276367 C-596.7247583 683.15024795 -601.90918745 689.60874472 -606.90136719 696.25878906 C-607.85584826 697.52716441 -608.81513542 698.79193243 -609.77832031 700.05371094 C-630.87528804 727.7083739 -649.49263924 757.6677809 -666.28515625 788.09765625 C-666.77870605 788.99145996 -667.27225586 789.88526367 -667.78076172 790.80615234 C-681.14300422 815.21300791 -691.34602976 840.78351079 -700.28515625 867.09765625 C-700.64593262 868.13954102 -701.00670898 869.18142578 -701.37841797 870.25488281 C-717.11971127 915.87487807 -724.34360794 965.48510622 -724.48828125 1013.64453125 C-724.49530229 1015.09767691 -724.50238912 1016.55082225 -724.50953674 1018.00396729 C-724.52892711 1022.61853481 -724.53396992 1027.23305209 -724.53515625 1031.84765625 C-724.53559811 1032.63267517 -724.53603996 1033.41769409 -724.53649521 1034.22650146 C-724.54330947 1057.29628718 -724.44742547 1080.20232907 -721.28515625 1103.09765625 C-721.11886719 1104.34998047 -720.95257812 1105.60230469 -720.78125 1106.89257812 C-711.12221136 1177.33201175 -681.15005569 1245.19280493 -645.28515625 1306.09765625 C-644.70443359 1307.08749512 -644.12371094 1308.07733398 -643.52539062 1309.09716797 C-630.87237645 1330.60117622 -617.80660315 1351.86375909 -602.91357422 1371.89990234 C-601.19209421 1374.22325512 -599.4892423 1376.55945911 -597.7890625 1378.8984375 C-590.98619697 1388.23524692 -583.98110654 1397.35814302 -576.70556641 1406.33007812 C-574.82611709 1408.66889096 -572.98672226 1411.03763428 -571.14697266 1413.40771484 C-562.80482517 1424.14273361 -553.94469366 1434.40440622 -544.734375 1444.40234375 C-542.75809099 1446.57720175 -540.81651319 1448.77254208 -538.88671875 1450.98828125 C-528.68824765 1462.66904856 -517.79637263 1473.68818684 -506.84765625 1484.66015625 C-506.28589691 1485.22450378 -505.72413757 1485.78885132 -505.14535522 1486.37030029 C-499.6164035 1491.91933455 -494.0858682 1497.41722389 -488.12475586 1502.50756836 C-484.05165949 1506.02821556 -480.19295228 1509.79046665 -476.28515625 1513.4921875 C-472.29081429 1517.26028743 -468.23135903 1520.93070727 -464.08447266 1524.53027344 C-461.84928212 1526.47734579 -459.66045622 1528.47260094 -457.47265625 1530.47265625 C-454.0313742 1533.58294476 -450.52194327 1536.56243937 -446.91015625 1539.47265625 C-441.76468077 1543.6356152 -436.90515204 1548.04606883 -432.0546875 1552.54296875 C-429.82597232 1554.59879347 -427.57747706 1556.61382582 -425.28515625 1558.59765625 C-417.96780941 1564.9525963 -410.79065589 1571.48031958 -404.00927734 1578.40600586 C-402.39252428 1579.99231031 -400.72574927 1581.44207023 -398.9921875 1582.8984375 C-392.94051509 1588.16468304 -387.33636622 1593.89754707 -381.67602539 1599.57641602 C-379.72718755 1601.53061249 -377.77306353 1603.47940772 -375.81835938 1605.42773438 C-370.31356629 1610.92958423 -364.83793985 1616.405769 -359.79614258 1622.34155273 C-356.95588821 1625.64256254 -353.91133228 1628.75614075 -350.91015625 1631.91015625 C-345.88346707 1637.23267775 -341.06047516 1642.62693416 -336.5 1648.359375 C-334.89817608 1650.33976048 -333.28077612 1652.26759455 -331.6015625 1654.1796875 C-323.5694999 1663.32723905 -316.25364821 1672.92450618 -309.03662109 1682.72460938 C-307.45905688 1684.86203956 -305.86942347 1686.98959457 -304.2734375 1689.11328125 C-297.50065035 1698.16504062 -291.28919853 1707.52094316 -285.28515625 1717.09765625 C-284.82608887 1717.82887695 -284.36702148 1718.56009766 -283.89404297 1719.31347656 C-276.98142088 1730.36882943 -270.42166414 1741.59288953 -264.28515625 1753.09765625 C-263.86298828 1753.88462891 -263.44082031 1754.67160156 -263.00585938 1755.48242188 C-232.98757117 1811.95291593 -213.96448684 1876.08717201 -212.28515625 1940.09765625 C-212.26324219 1940.84756836 -212.24132813 1941.59748047 -212.21875 1942.37011719 C-210.75615399 2000.11828299 -225.64310588 2056.93726359 -252.21044922 2108.01757812 C-253.37953323 2110.28032138 -254.52176693 2112.55565478 -255.6640625 2114.83203125 C-265.39045422 2134.01843957 -276.76395409 2152.34170088 -288.91259766 2170.0859375 C-290.53073479 2172.45759349 -292.13226628 2174.8401445 -293.734375 2177.22265625 C-306.09269127 2195.54911144 -319.00806964 2213.21751874 -333.28515625 2230.09765625 C-333.81383301 2230.72542969 -334.34250977 2231.35320313 -334.88720703 2232 C-341.37714141 2239.69599238 -348.03689294 2247.21099696 -354.88769531 2254.58691406 C-356.3274754 2256.14340588 -357.75652786 2257.70919186 -359.18359375 2259.27734375 C-368.03792366 2268.98529643 -377.04137948 2278.65910507 -387.07421875 2287.16796875 C-389.52685245 2289.30860664 -391.89558504 2291.52573954 -394.26806641 2293.75439453 C-399.86504962 2299.01080871 -405.53345966 2304.06936931 -411.53125 2308.87109375 C-413.99696372 2310.86464952 -416.41088704 2312.90778354 -418.81396484 2314.97607422 C-425.70925931 2320.90109171 -432.86409016 2326.43324373 -440.109375 2331.921875 C-443.78612623 2334.70850944 -447.41851915 2337.54617936 -451.03515625 2340.41015625 C-464.19516611 2350.79933411 -477.58140144 2360.89436067 -491.10888672 2370.79907227 C-497.16231979 2375.24174492 -503.13707741 2379.78138987 -509.09765625 2384.34765625 C-516.46268453 2389.98428677 -523.90037814 2395.47751958 -531.48046875 2400.81982422 C-543.73753822 2409.49859879 -555.82530065 2418.41453157 -567.90283203 2427.34033203 C-570.25478675 2429.07525415 -572.61100464 2430.80420769 -574.96875 2432.53125 C-586.85197484 2441.24247838 -598.60730846 2450.11302118 -610.28515625 2459.09765625 C-610.96481445 2459.6198877 -611.64447266 2460.14211914 -612.34472656 2460.68017578 C-624.50603024 2470.04834731 -636.12715322 2479.9796275 -647.37109375 2490.4296875 C-649.60785979 2492.47755775 -651.86432262 2494.48342311 -654.15234375 2496.47265625 C-658.19226461 2499.99482207 -662.12949249 2503.61514147 -666.03515625 2507.28515625 C-666.72472412 2507.93299072 -667.41429199 2508.5808252 -668.12475586 2509.24829102 C-676.30632597 2516.96591374 -684.41234633 2524.73370271 -691.7109375 2533.3046875 C-693.33282815 2535.15195254 -695.0317583 2536.87522339 -696.78515625 2538.59765625 C-699.79929207 2541.56500948 -702.58432958 2544.67110917 -705.34375 2547.875 C-707.57319686 2550.42742508 -709.86517007 2552.91653139 -712.16015625 2555.41015625 C-716.60099491 2560.28441009 -720.80077359 2565.3071869 -724.93945312 2570.43847656 C-727.70012919 2573.84224189 -730.49627322 2577.2170012 -733.28515625 2580.59765625 C-739.65989183 2588.33424798 -746.03134574 2596.07323047 -752.3359375 2603.8671875 C-757.46683762 2610.20589648 -762.61190202 2616.52275421 -767.91015625 2622.72265625 C-772.05599769 2627.57897906 -776.03042553 2632.54613635 -779.94970703 2637.58642578 C-783.6469151 2642.32546775 -787.45041326 2646.96946441 -791.28515625 2651.59765625 C-795.99764459 2657.28819618 -800.62915959 2663.02871206 -805.16967773 2668.85717773 C-808.66965639 2673.34086494 -812.24844312 2677.75588353 -815.84765625 2682.16015625 C-820.94973515 2688.41532279 -825.93337525 2694.74028115 -830.81689453 2701.16845703 C-832.52915597 2703.41825581 -834.24892825 2705.66222553 -835.96875 2707.90625 C-843.06887243 2717.18236997 -850.09584943 2726.50399624 -856.99291992 2735.93212891 C-860.69795749 2740.98364285 -864.47649472 2745.97165966 -868.29833984 2750.93530273 C-875.84464712 2760.73902931 -882.95057415 2770.75221155 -889.86376953 2781.00927734 C-891.89313558 2783.99093265 -893.98794044 2786.92255309 -896.09765625 2789.84765625 C-915.20878028 2816.44886021 -933.0773644 2843.64784043 -949.63964844 2871.89395142 C-952.50364536 2876.77674479 -955.38970823 2881.64593795 -958.2890625 2886.5078125 C-975.5282155 2915.41926464 -991.88060403 2944.70043284 -1007.34765625 2974.59765625 C-1007.80913559 2975.48964722 -1007.80913559 2975.48964722 -1008.27993774 2976.3996582 C-1012.34603904 2984.26721869 -1016.34402956 2992.16678034 -1020.28515625 3000.09765625 C-1023.58515625 3000.09765625 -1026.88515625 3000.09765625 -1030.28515625 3000.09765625 C-1028.86000202 2995.4545554 -1026.97035928 2991.17579199 -1024.79296875 2986.84765625 C-1024.28015854 2985.81794205 -1024.28015854 2985.81794205 -1023.75698853 2984.76742554 C-1022.6461643 2982.54173613 -1021.52871999 2980.31946501 -1020.41015625 2978.09765625 C-1020.02766724 2977.33511536 -1019.64517822 2976.57257446 -1019.25109863 2975.78692627 C-1013.31745581 2963.96397706 -1007.16742668 2952.28671591 -1000.734375 2940.72705078 C-999.20668138 2937.95527512 -997.7112374 2935.16796444 -996.22265625 2932.375 C-988.98871394 2918.81806455 -981.3289403 2905.56605183 -973.43528748 2892.38346863 C-970.17278183 2886.92724957 -966.9695293 2881.43714342 -963.76831055 2875.94482422 C-947.15374378 2847.44016779 -929.22230623 2819.99812441 -910.29394531 2792.97412109 C-908.25838651 2790.05932359 -906.23490491 2787.13649325 -904.21484375 2784.2109375 C-892.64373049 2767.46481073 -880.62970546 2751.11363631 -868.25927734 2734.95068359 C-863.74612084 2729.04515866 -859.30491926 2723.0917201 -854.91015625 2717.09765625 C-849.4700758 2709.68115733 -843.94358099 2702.3492297 -838.28515625 2695.09765625 C-837.6504541 2694.28167969 -837.6504541 2694.28167969 -837.00292969 2693.44921875 C-831.13512637 2685.9092435 -825.16226012 2678.46158406 -819.12182617 2671.05932617 C-815.63019437 2666.77374227 -812.18731257 2662.45453102 -808.78515625 2658.09765625 C-803.20573833 2650.95612407 -797.49499016 2643.92456501 -791.76171875 2636.90625 C-790.45468084 2635.30530145 -789.15092269 2633.70167649 -787.84765625 2632.09765625 C-784.37692124 2627.83361038 -780.87324938 2623.60332127 -777.30517578 2619.4206543 C-772.53279097 2613.82558852 -767.92293807 2608.13553002 -763.41064453 2602.32885742 C-759.8593684 2597.77850911 -756.16261997 2593.37297952 -752.40795898 2588.98999023 C-749.11401445 2585.12592868 -745.95951908 2581.17179454 -742.84765625 2577.16015625 C-735.08681047 2567.17755633 -726.78149974 2557.67364988 -718.28515625 2548.3125 C-716.48912096 2546.32353123 -714.72562322 2544.31202431 -712.97265625 2542.28515625 C-705.99568796 2534.28598098 -698.78650289 2526.4856365 -691.20727539 2519.05419922 C-689.38749072 2517.20182346 -687.70304665 2515.2917436 -686.0234375 2513.3125 C-682.50258352 2509.26410046 -678.73230137 2505.60072077 -674.78515625 2501.97265625 C-673.37889894 2500.66797663 -671.97264913 2499.36328893 -670.56640625 2498.05859375 C-669.85742188 2497.40342773 -669.1484375 2496.74826172 -668.41796875 2496.07324219 C-666.33502047 2494.14384458 -664.2614826 2492.204913 -662.19140625 2490.26171875 C-655.9807535 2484.43261043 -649.77528987 2478.61672821 -643.28515625 2473.09765625 C-641.86203125 2471.87369141 -641.86203125 2471.87369141 -640.41015625 2470.625 C-632.5432554 2463.88539056 -624.48965529 2457.42051314 -616.28515625 2451.09765625 C-615.50076172 2450.49260254 -614.71636719 2449.88754883 -613.90820312 2449.26416016 C-603.30835545 2441.10276554 -592.61427938 2433.09929629 -581.7421875 2425.3046875 C-577.08241486 2421.96129292 -572.46180424 2418.5661403 -567.84765625 2415.16015625 C-567.06060303 2414.57935303 -566.2735498 2413.9985498 -565.46264648 2413.40014648 C-563.06964018 2411.6333383 -560.67727819 2409.86566158 -558.28515625 2408.09765625 C-555.09846664 2405.74238994 -551.91109525 2403.38805386 -548.72265625 2401.03515625 C-547.9349585 2400.4537085 -547.14726074 2399.87226074 -546.33569336 2399.27319336 C-541.78528464 2395.92038373 -537.21309472 2392.60065303 -532.61962891 2389.30712891 C-524.36152245 2383.38501721 -516.24666427 2377.29814344 -508.18115234 2371.11645508 C-502.34543818 2366.64934079 -496.46363319 2362.25328707 -490.53515625 2357.91015625 C-482.40145224 2351.94751326 -474.37395884 2345.85783861 -466.38232422 2339.70654297 C-464.26308391 2338.08072299 -462.13665134 2336.46478911 -460.0078125 2334.8515625 C-450.87350248 2327.92183504 -441.90488093 2320.81966059 -433.04541016 2313.54199219 C-431.46620041 2312.24620788 -429.88186339 2310.95667827 -428.296875 2309.66796875 C-417.80721892 2301.13658421 -407.52411662 2292.4522765 -397.6484375 2283.21484375 C-394.97885523 2280.71977114 -392.25676916 2278.28876382 -389.52734375 2275.859375 C-384.21206995 2271.08476444 -379.13728025 2266.09802217 -374.09765625 2261.03515625 C-372.82245117 2259.76575195 -372.82245117 2259.76575195 -371.52148438 2258.47070312 C-367.11895155 2254.06137102 -362.86314766 2249.58638814 -358.80249023 2244.86010742 C-356.72749132 2242.44990354 -354.5680832 2240.12109401 -352.41015625 2237.78515625 C-348.37236303 2233.35269151 -344.51208191 2228.82023448 -340.75 2224.15234375 C-338.9443045 2221.91454045 -337.12536313 2219.69283726 -335.2890625 2217.48046875 C-272.98408157 2142.16759024 -221.50981468 2048.18348268 -224.57763672 1906.94677734 C-227.22091628 1880.89159308 -234.01576945 1855.87896799 -242.28515625 1831.09765625 C-242.671875 1829.93621094 -243.05859375 1828.77476563 -243.45703125 1827.578125 C-262.94921094 1769.68635133 -293.08498845 1717.66105879 -331.28515625 1670.09765625 C-332.01863281 1669.18113281 -332.75210938 1668.26460937 -333.5078125 1667.3203125 C-342.6582849 1656.01092646 -352.24922485 1645.07812262 -362.17407227 1634.44433594 C-364.08501947 1632.39428589 -365.9802481 1630.33332481 -367.8659668 1628.25976562 C-375.89907654 1619.44024363 -384.25837844 1610.97089336 -392.70458984 1602.54785156 C-395.04902302 1600.20882144 -397.38800496 1597.86443428 -399.7265625 1595.51953125 C-401.24056459 1594.00618938 -402.75487655 1592.49315744 -404.26953125 1590.98046875 C-404.95617859 1590.29179718 -405.64282593 1589.60312561 -406.35028076 1588.89358521 C-410.26152381 1585.00098301 -414.27091118 1581.28155628 -418.45799255 1577.68670654 C-421.59288221 1574.9603513 -424.58287796 1572.08021849 -427.59765625 1569.22265625 C-432.76720887 1564.35609988 -438.04874688 1559.74667312 -443.59765625 1555.3125 C-447.71418915 1551.91995036 -451.59675437 1548.28524179 -455.5078125 1544.66015625 C-458.39209178 1541.9989928 -461.32852758 1539.41066617 -464.29296875 1536.83984375 C-467.51538172 1534.02181201 -470.68210604 1531.14214012 -473.859375 1528.2734375 C-475.92218413 1526.42322062 -478.00227995 1524.59820816 -480.09765625 1522.78515625 C-488.09890808 1515.80637677 -495.89654023 1508.59287264 -503.33422852 1501.01611328 C-505.15843028 1499.22227302 -507.03434154 1497.55400395 -508.98046875 1495.89453125 C-513.45975621 1491.99988041 -517.66322279 1487.86731062 -521.84765625 1483.66015625 C-522.92176758 1482.5918457 -522.92176758 1482.5918457 -524.01757812 1481.50195312 C-528.09376646 1477.4183468 -531.97519116 1473.22903648 -535.74194336 1468.85913086 C-537.66106653 1466.66857973 -539.69535405 1464.62507629 -541.78515625 1462.59765625 C-545.17784024 1459.24508846 -548.37616309 1455.80289943 -551.48046875 1452.18359375 C-553.50166901 1449.84740124 -555.57894464 1447.56800774 -557.66015625 1445.28515625 C-562.39121703 1440.0363868 -566.84575065 1434.59340563 -571.28515625 1429.09765625 C-572.31959069 1427.83144122 -573.35479247 1426.56585282 -574.390625 1425.30078125 C-580.21483973 1418.17942171 -585.97813718 1411.02497997 -591.5390625 1403.6953125 C-593.55929477 1401.0334743 -595.61668227 1398.40390495 -597.6875 1395.78125 C-610.16496022 1379.85323287 -621.24733947 1363.03911022 -632.28515625 1346.09765625 C-632.92001953 1345.1245752 -633.55488281 1344.15149414 -634.20898438 1343.14892578 C-680.52387858 1271.83109725 -720.67428928 1189.20565171 -731.28515625 1104.09765625 C-731.4346875 1102.95522461 -731.58421875 1101.81279297 -731.73828125 1100.63574219 C-737.34026695 1055.63875793 -736.89883517 1007.06153062 -731.28515625 962.09765625 C-731.1459375 960.87804199 -731.00671875 959.65842773 -730.86328125 958.40185547 C-722.22951616 883.02628824 -694.77983158 811.05433004 -653.7734375 747.42138672 C-652.25047401 745.04350507 -650.7492495 742.65314865 -649.25390625 740.2578125 C-635.42534342 718.1160866 -620.36456112 696.93348295 -603.70898438 676.82128906 C-601.69675152 674.3853556 -599.71207875 671.9272315 -597.72265625 669.47265625 C-588.56335269 658.31495919 -579.05551697 647.56257957 -569.14111328 637.07128906 C-567.19741119 635.00434777 -565.26922674 632.92376674 -563.34375 630.83984375 C-562.68673096 630.13134277 -562.02971191 629.4228418 -561.3527832 628.69287109 C-560.10238687 627.34425965 -558.8546118 625.99321063 -557.61010742 624.63916016 C-553.97302146 620.73132966 -550.16664313 617.17143669 -546.11523438 613.69628906 C-543.77607006 611.65295289 -541.62443891 609.46111317 -539.47265625 607.22265625 C-535.21339433 602.91121348 -530.72447497 599.08389889 -525.9921875 595.3046875 C-523.39858447 593.1901338 -520.93308194 590.98979154 -518.47265625 588.72265625 C-512.96902886 583.72014407 -507.14305411 579.17303415 -501.26269531 574.62939453 C-499.19924319 573.03111075 -497.14386675 571.42288038 -495.08984375 569.8125 C-483.93936122 561.08187238 -472.64829458 552.54911599 -461.28515625 544.09765625 C-460.48964355 543.50452637 -459.69413086 542.91139648 -458.87451172 542.30029297 C-447.63894931 533.92964879 -436.25158815 525.80452465 -424.74414062 517.8125 C-422.40115787 516.17855333 -420.06798093 514.53172008 -417.73828125 512.87890625 C-406.43504451 504.8762531 -394.94364228 497.17779626 -383.40689087 489.51812744 C-373.55290176 482.97333959 -363.77250898 476.35587465 -354.16992188 469.4453125 C-352.10867836 467.97146999 -350.03439234 466.51743654 -347.95703125 465.06640625 C-339.78350688 459.3534955 -331.7455555 453.52677743 -323.90185547 447.3671875 C-322.19036432 446.02321982 -320.47429198 444.68524572 -318.7578125 443.34765625 C-303.62355976 431.53204821 -288.81472095 419.34923336 -274.76708984 406.25341797 C-271.90155212 403.5822738 -269.00860133 400.96050243 -266.03515625 398.41015625 C-262.33212894 395.21279443 -258.92763333 391.75767991 -255.49609375 388.2734375 C-253.53141784 386.34000202 -251.52063234 384.55537191 -249.41015625 382.78515625 C-244.44880484 378.51858975 -240.17977179 373.63137821 -235.81201172 368.77734375 C-233.68078995 366.43279533 -231.50749179 364.12887118 -229.33666992 361.82104492 C-223.36343161 355.45811522 -217.73773323 348.91563808 -212.28515625 342.09765625 C-211.30387403 340.90607516 -210.3206758 339.71607029 -209.3359375 338.52734375 C-200.91794012 328.33598244 -192.99882608 317.83028196 -185.28515625 307.09765625 C-184.73279297 306.3303418 -184.18042969 305.56302734 -183.61132812 304.77246094 C-166.75523033 281.25949808 -151.29145106 256.81975381 -136.28515625 232.09765625 C-135.25426689 230.40590895 -134.22337314 228.71416426 -133.19198608 227.02272034 C-124.73858799 213.15747762 -116.36010056 199.24791074 -108.02050781 185.31396484 C-104.34897195 179.18267838 -100.6627885 173.06126463 -96.93359375 166.96484375 C-89.12127103 154.18812095 -81.47592214 141.34197544 -74.09326172 128.31152344 C-70.45134077 121.88376042 -66.76269799 115.48858941 -63.00219727 109.12939453 C-55.30521923 96.09936176 -48.17864058 82.80426017 -41.11167908 69.42700195 C-37.68597063 62.94946321 -34.17780202 56.51828808 -30.65625 50.0925293 C-28.08912527 45.40691628 -25.53648917 40.71431102 -23.0078125 36.0078125 C-3.73473305 0.15960398 -3.73473305 0.15960398 0 0 Z " fill="#000000" transform="translate(1757.28515625,-0.09765625)"/>
</svg>
