<svg xmlns="http://www.w3.org/2000/svg" width="2560" height="3000"><path d="m1757.285-.098 2.777.036 2.786.027L1765 0c-3.518 7.24-7.144 14.38-11.125 21.375-3.769 6.624-7.438 13.296-11.062 20-.55 1.014-1.098 2.029-1.663 3.073a4834 4834 0 0 0-8.638 16.064c-6.605 12.327-13.323 24.573-20.242 36.726a1278 1278 0 0 0-6.633 11.805c-7.582 13.653-15.403 27.143-23.411 40.55a3710 3710 0 0 0-7.867 13.243 4174 4174 0 0 1-28.214 46.999q-3.74 6.138-7.457 12.29c-28.643 47.356-58.566 93.53-94.5 135.75l-1.324 1.564c-9.144 10.68-18.91 20.775-28.865 30.693a2243 2243 0 0 0-5.284 5.29c-5.211 5.214-10.424 10.361-16.038 15.146-2.568 2.193-5.018 4.505-7.49 6.807-4.62 4.269-9.378 8.305-14.28 12.25a357 357 0 0 0-8 6.767 366 366 0 0 1-20.01 16.18c-2.124 1.599-4.237 3.21-6.35 4.823-15.498 11.773-31.414 22.942-47.644 33.682-23.575 15.607-46.851 31.696-69.712 48.333a1536 1536 0 0 1-6.847 4.934c-8.912 6.395-17.689 12.917-26.344 19.656a3011 3011 0 0 1-4.814 3.693c-11.205 8.589-22.326 17.283-33.186 26.307l-1.542 1.28a520 520 0 0 0-21.828 19.203c-1.772 1.65-3.55 3.292-5.33 4.935-14.26 13.183-14.26 13.183-27.433 27.434-1.895 2.18-3.847 4.302-5.812 6.42a298 298 0 0 0-13.746 15.888c-2.08 2.558-4.2 5.071-6.343 7.575a390 390 0 0 0-15.582 19.426 692 692 0 0 1-2.877 3.795C1126.41 727.611 1107.793 757.57 1091 788l-1.496 2.708C1076.142 815.115 1065.94 840.686 1057 867l-1.093 3.157c-15.742 45.62-22.965 95.23-23.11 143.39l-.021 4.36c-.02 4.614-.025 9.228-.026 13.843l-.001 2.379c-.007 23.07.089 45.976 3.251 68.871l.504 3.795c9.659 70.44 39.631 138.3 75.496 199.205l1.76 3c12.653 21.504 25.719 42.766 40.612 62.802a949 949 0 0 1 5.124 6.999 668 668 0 0 0 21.084 27.431 534 534 0 0 1 5.558 7.078c8.342 10.735 17.202 20.997 26.413 30.995a418 418 0 0 1 5.847 6.586c10.199 11.68 21.09 22.7 32.04 33.671.561.565 1.123 1.13 1.702 1.71 5.529 5.55 11.06 11.048 17.02 16.138 4.073 3.52 7.932 7.283 11.84 10.985a397 397 0 0 0 12.2 11.038c2.236 1.947 4.425 3.942 6.612 5.942 3.442 3.11 6.951 6.09 10.563 9 5.145 4.163 10.005 8.573 14.855 13.07a286 286 0 0 0 6.77 6.055c7.317 6.355 14.495 12.883 21.276 19.808 1.617 1.587 3.283 3.036 5.017 4.493 6.052 5.266 11.656 10.999 17.316 16.678q2.925 2.93 5.858 5.851c5.505 5.502 10.98 10.978 16.022 16.914 2.84 3.3 5.885 6.414 8.886 9.569 5.027 5.322 9.85 10.716 14.41 16.449 1.602 1.98 3.22 3.908 4.899 5.82 8.032 9.148 15.348 18.745 22.565 28.545a921 921 0 0 0 4.763 6.389c6.773 9.051 12.984 18.407 18.988 27.984l1.391 2.216c6.913 11.055 13.472 22.28 19.609 33.784l1.28 2.385c30.018 56.47 49.04 120.605 50.72 184.615l.066 2.272c1.463 57.749-13.424 114.568-39.991 165.648a647 647 0 0 0-3.454 6.814c-9.726 19.187-21.1 37.51-33.248 55.254-1.619 2.372-3.22 4.754-4.822 7.137-12.359 18.326-25.274 35.995-39.551 52.875l-1.602 1.902a629 629 0 0 1-20 22.587 782 782 0 0 0-4.296 4.69c-8.855 9.709-17.858 19.382-27.891 27.891-2.453 2.141-4.821 4.358-7.194 6.587-5.597 5.256-11.265 10.315-17.263 15.116a309 309 0 0 0-7.283 6.105c-6.895 5.925-14.05 11.458-21.295 16.946a651 651 0 0 0-10.926 8.488c-13.16 10.39-26.546 20.485-40.074 30.39-6.053 4.442-12.028 8.982-17.988 13.548a706 706 0 0 1-22.383 16.472c-12.257 8.679-24.345 17.595-36.423 26.52a2620 2620 0 0 1-7.066 5.192c-11.883 8.71-23.638 17.581-35.316 26.566l-2.06 1.583c-12.16 9.368-23.782 19.299-35.026 29.749a353 353 0 0 1-6.781 6.043c-4.04 3.522-7.977 7.142-11.883 10.813l-2.09 1.963c-8.181 7.717-16.287 15.485-23.586 24.056-1.622 1.847-3.32 3.57-5.074 5.293-3.014 2.967-5.8 6.073-8.559 9.277-2.229 2.553-4.521 5.042-6.816 7.535-4.44 4.875-8.64 9.898-12.78 15.029-2.76 3.404-5.556 6.778-8.345 10.159-6.375 7.737-12.746 15.476-19.05 23.27-5.132 6.338-10.277 12.655-15.575 18.855-4.146 4.856-8.12 9.823-12.04 14.864-3.697 4.739-7.5 9.383-11.335 14.011a742 742 0 0 0-13.885 17.26c-3.5 4.483-7.078 8.898-10.678 13.302a700 700 0 0 0-14.969 19.009q-2.57 3.374-5.152 6.738c-7.1 9.276-14.127 18.597-21.024 28.025a805 805 0 0 1-11.305 15.004c-7.546 9.803-14.652 19.817-21.566 30.074-2.029 2.981-4.124 5.913-6.234 8.838-19.11 26.601-36.98 53.8-53.541 82.046q-4.298 7.323-8.65 14.614c-17.24 28.912-33.591 58.193-49.058 88.09l-.933 1.802A1679 1679 0 0 0 737 3000h-10c1.425-4.643 3.315-8.922 5.492-13.25l1.036-2.08a2144 2144 0 0 1 3.347-6.67c.382-.763.765-1.525 1.16-2.31a928 928 0 0 1 18.516-35.06 675 675 0 0 0 4.511-8.353c7.234-13.557 14.894-26.809 22.788-39.991 3.262-5.456 6.466-10.947 9.667-16.439 16.614-28.504 34.546-55.947 53.474-82.97 2.036-2.915 4.06-5.838 6.08-8.764 11.57-16.746 23.584-33.097 35.955-49.26A1121 1121 0 0 0 902.375 2717 926 926 0 0 1 919 2695l1.282-1.648c5.868-7.54 11.84-14.988 17.881-22.39A801 801 0 0 0 948.5 2658c5.58-7.142 11.29-14.173 17.023-21.191q1.96-2.402 3.914-4.809a714 714 0 0 1 10.543-12.677 482 482 0 0 0 13.895-17.092c3.55-4.55 7.248-8.956 11.002-13.339 3.294-3.864 6.449-7.818 9.56-11.83 7.761-9.982 16.067-19.486 24.563-28.847 1.796-1.99 3.56-4 5.313-6.028 6.976-7.999 14.186-15.799 21.765-23.23 1.82-1.853 3.504-3.763 5.184-5.742 3.52-4.049 7.29-7.712 11.238-11.34l4.219-3.914 2.148-1.985q3.123-2.896 6.227-5.812c6.21-5.829 12.416-11.645 18.906-17.164l2.875-2.473c7.867-6.74 15.92-13.204 24.125-19.527l2.377-1.833c10.6-8.162 21.294-16.165 32.166-23.96 4.66-3.343 9.28-6.739 13.895-10.144l2.385-1.76L1199 2408q4.78-3.533 9.563-7.062l2.386-1.762q6.826-5.028 13.717-9.967c8.258-5.922 16.372-12.009 24.438-18.19a1046 1046 0 0 1 17.646-13.206c8.134-5.963 16.161-12.053 24.153-18.204a1352 1352 0 0 1 6.374-4.855 888 888 0 0 0 26.963-21.31q2.37-1.941 4.748-3.874c10.49-8.531 20.773-17.215 30.649-26.453 2.67-2.495 5.391-4.926 8.12-7.355 5.316-4.775 10.39-9.762 15.43-14.825l2.577-2.564c4.402-4.41 8.658-8.884 12.719-13.61 2.075-2.41 4.234-4.74 6.392-7.075a296 296 0 0 0 11.66-13.633 623 623 0 0 1 5.461-6.672c62.305-75.313 113.78-169.297 110.712-310.534-2.644-26.055-9.439-51.068-17.708-75.849l-1.172-3.52C1494.336 1769.59 1464.2 1717.563 1426 1670l-2.223-2.777c-9.15-11.31-18.741-22.243-28.666-32.876a683 683 0 0 1-5.692-6.185c-8.033-8.82-16.392-17.289-24.838-25.712a3961 3961 0 0 1-7.022-7.028l-4.543-4.54-2.081-2.086a224 224 0 0 0-12.108-11.207c-3.135-2.726-6.125-5.606-9.14-8.464a261 261 0 0 0-16-13.91c-4.116-3.393-7.999-7.027-11.91-10.652-2.884-2.662-5.82-5.25-8.785-7.82-3.222-2.819-6.389-5.699-9.566-8.567a466 466 0 0 0-6.238-5.488c-8.002-6.98-15.8-14.193-23.237-21.77-1.824-1.793-3.7-3.462-5.646-5.121-4.48-3.895-8.683-8.027-12.868-12.235l-2.17-2.158a235 235 0 0 1-11.724-12.643c-1.919-2.19-3.953-4.234-6.043-6.261a172 172 0 0 1-9.695-10.414c-2.022-2.336-4.099-4.616-6.18-6.899-4.731-5.248-9.186-10.691-13.625-16.187l-3.105-3.797c-5.825-7.121-11.588-14.276-17.149-21.605a523 523 0 0 0-6.148-7.914c-12.478-15.928-23.56-32.743-34.598-49.684l-1.924-2.949c-46.315-71.318-86.465-153.943-97.076-239.051-.15-1.142-.3-2.285-.453-3.462-5.602-44.997-5.16-93.574.453-138.538l.422-3.696c8.634-75.375 36.083-147.347 77.09-210.98a732 732 0 0 0 4.52-7.164c13.828-22.142 28.889-43.324 45.544-63.436 2.012-2.436 3.997-4.894 5.986-7.349 9.16-11.158 18.668-21.91 28.582-32.401a969 969 0 0 0 5.797-6.232l1.991-2.147a1265 1265 0 0 0 3.743-4.053c3.637-3.908 7.444-7.468 11.495-10.943 2.34-2.044 4.49-4.236 6.642-6.474 4.26-4.311 8.749-8.139 13.481-11.918 2.594-2.115 5.06-4.315 7.52-6.582 5.503-5.003 11.33-9.55 17.21-14.093a1332 1332 0 0 0 6.172-4.817c11.15-8.73 22.442-17.264 33.805-25.715l2.41-1.797c11.236-8.371 22.624-16.496 34.131-24.488q3.513-2.452 7.006-4.934c11.303-8.002 22.795-15.7 34.331-23.36 9.854-6.545 19.635-13.163 29.237-20.073a690 690 0 0 1 6.213-4.38c8.174-5.712 16.212-11.539 24.055-17.698q2.569-2.014 5.144-4.02c15.135-11.816 29.943-23.998 43.991-37.094a284 284 0 0 1 8.732-7.844c3.703-3.197 7.108-6.652 10.54-10.136 1.964-1.934 3.975-3.718 6.085-5.488 4.961-4.267 9.23-9.154 13.598-14.008 2.131-2.345 4.305-4.649 6.475-6.957 5.974-6.363 11.6-12.905 17.052-19.723q1.471-1.788 2.95-3.57c8.417-10.192 16.336-20.697 24.05-31.43l1.674-2.325c16.856-23.513 32.32-47.953 47.326-72.675q1.546-2.538 3.093-5.075a5951 5951 0 0 0 25.172-41.709 2274 2274 0 0 1 11.087-18.349c7.812-12.777 15.457-25.623 22.84-38.653 3.642-6.428 7.33-12.823 11.091-19.182 7.697-13.03 14.824-26.325 21.89-39.703 3.426-6.477 6.934-12.908 10.456-19.334a1957 1957 0 0 0 7.648-14.085C1753.55.062 1753.55.062 1757.285-.098"/></svg>