<?xml version="1.0" encoding="utf-8"?>
<svg xmlns="http://www.w3.org/2000/svg" viewBox="966.054 -3834.179 858.947 2807.5249" width="858.947px" height="2807.52px" xmlns:bx="https://boxy-svg.com" preserveAspectRatio="none"><path style="fill: rgb(216, 216, 216); stroke: rgb(0, 0, 0);" d="M 1825.001 -3834.179 L 1823.158 -3828.895 C 1821.314 -3823.611 1817.628 -3813.043 1814.801 -3804.318 C 1811.975 -3795.594 1810.009 -3788.712 1806.937 -3780.602 C 1803.865 -3772.492 1799.687 -3763.153 1793.789 -3753.691 C 1787.89 -3744.229 1780.272 -3734.644 1773.39 -3726.534 C 1766.509 -3718.423 1760.364 -3711.788 1753.974 -3703.555 C 1747.584 -3695.322 1740.949 -3685.491 1734.805 -3676.398 C 1728.661 -3667.305 1723.008 -3658.949 1716.004 -3650.839 C 1709 -3642.728 1700.644 -3634.864 1688.724 -3621.346 C 1676.805 -3607.829 1661.321 -3588.66 1649.402 -3575.511 C 1637.482 -3562.363 1629.126 -3555.236 1616.715 -3545.774 C 1604.304 -3536.312 1587.838 -3524.516 1571.741 -3512.842 C 1555.643 -3501.168 1539.914 -3489.617 1527.38 -3480.155 C 1514.846 -3470.693 1505.507 -3463.32 1496.291 -3456.193 C 1487.075 -3449.066 1477.981 -3442.184 1469.502 -3434.811 C 1461.023 -3427.439 1453.159 -3419.574 1444.065 -3410.481 C 1434.972 -3401.388 1424.65 -3391.065 1413.591 -3380.252 C 1402.531 -3369.438 1390.735 -3358.133 1381.273 -3350.146 C 1371.811 -3342.158 1364.683 -3337.489 1354.116 -3324.094 C 1343.548 -3310.7 1329.539 -3288.582 1318.48 -3271.378 C 1307.421 -3254.175 1299.31 -3241.886 1291.569 -3230.581 C 1283.827 -3219.276 1276.454 -3208.954 1270.187 -3199.369 C 1263.92 -3189.784 1258.759 -3180.937 1252.984 -3169.508 C 1247.208 -3158.08 1240.818 -3144.072 1231.356 -3122.09 C 1221.894 -3100.108 1209.36 -3070.154 1200.758 -3044.731 C 1192.157 -3019.309 1187.487 -2998.419 1184.661 -2977.529 C 1181.835 -2956.639 1180.852 -2935.749 1181.098 -2916.333 C 1181.343 -2896.918 1182.818 -2878.977 1185.398 -2859.807 C 1187.979 -2840.638 1191.665 -2820.239 1201.25 -2790.42 C 1210.835 -2760.601 1226.318 -2721.361 1240.081 -2690.067 C 1253.844 -2658.773 1265.886 -2635.426 1279.895 -2612.569 C 1293.904 -2589.713 1309.878 -2567.349 1324.378 -2550.637 C 1338.878 -2533.925 1351.904 -2522.865 1365.421 -2509.963 C 1378.938 -2497.06 1392.946 -2482.314 1403.76 -2472.088 C 1414.574 -2461.861 1422.192 -2456.155 1431.04 -2446.666 C 1439.887 -2437.177 1449.964 -2423.905 1462.129 -2408.791 C 1474.294 -2393.676 1488.549 -2376.719 1500.837 -2358.532 C 1513.125 -2340.346 1523.448 -2320.93 1534.999 -2298.566 C 1546.55 -2276.201 1559.329 -2250.887 1569.406 -2227.293 C 1579.482 -2203.7 1586.855 -2181.827 1593.982 -2156.022 C 1601.109 -2130.217 1607.991 -2100.479 1612.537 -2070.742 C 1617.084 -2041.004 1619.296 -2011.267 1620.033 -1983.004 C 1620.771 -1954.741 1620.033 -1927.952 1618.313 -1902.393 C 1616.592 -1876.833 1613.889 -1852.503 1608.359 -1833.797 C 1602.829 -1815.092 1594.473 -1802.013 1584.52 -1787.363 C 1574.566 -1772.712 1563.016 -1756.492 1552.079 -1742.114 C 1541.143 -1727.737 1530.82 -1715.203 1520.252 -1701.194 C 1509.684 -1687.186 1498.871 -1671.703 1487.811 -1657.326 C 1476.752 -1642.949 1465.447 -1629.677 1454.511 -1617.881 C 1443.574 -1606.084 1433.006 -1595.762 1421.209 -1585.686 C 1409.413 -1575.609 1396.387 -1565.779 1381.764 -1553.982 C 1367.141 -1542.185 1350.921 -1528.422 1336.666 -1514.905 C 1322.412 -1501.388 1310.124 -1488.116 1291.815 -1470.23 C 1273.505 -1452.344 1249.175 -1429.844 1226.441 -1408.394 C 1203.708 -1386.945 1182.572 -1366.546 1162.788 -1346.148 C 1143.004 -1325.749 1124.571 -1305.351 1106.631 -1282.617 C 1088.69 -1259.884 1071.24 -1234.816 1053.791 -1208.151 C 1036.342 -1181.485 1018.893 -1153.223 1005.622 -1129.506 C 992.351 -1105.79 983.257 -1086.621 977.359 -1070.236 C 971.461 -1053.852 968.757 -1040.253 967.405 -1033.454 L 966.054 -1026.654" bx:d="M 1825.001 -3834.179 U 1813.941 -3802.475 U 1808.043 -3781.831 U 1795.509 -3753.814 U 1772.653 -3725.059 U 1754.22 -3705.152 U 1734.313 -3675.661 U 1717.356 -3650.593 U 1692.288 -3626.999 U 1645.838 -3569.49 U 1620.77 -3548.109 U 1571.372 -3512.719 U 1524.185 -3478.066 U 1496.168 -3455.947 U 1468.888 -3435.303 U 1445.294 -3411.71 U 1414.328 -3380.743 U 1378.938 -3346.828 U 1357.556 -3332.819 U 1315.531 -3266.463 U 1291.2 -3229.598 U 1269.081 -3198.632 U 1253.598 -3172.089 U 1234.428 -3130.063 U 1196.826 -3040.199 U 1182.818 -2977.529 U 1179.869 -2914.859 U 1184.292 -2861.036 U 1195.352 -2799.841 U 1241.801 -2682.121 U 1277.929 -2612.078 U 1325.853 -2544.984 U 1364.929 -2511.806 U 1406.955 -2467.568 U 1429.811 -2450.448 U 1460.04 -2410.634 U 1502.803 -2359.761 U 1533.77 -2301.515 U 1572.109 -2225.573 U 1594.228 -2159.954 U 1614.872 -2070.742 U 1621.508 -1981.529 U 1619.296 -1901.164 U 1611.185 -1828.172 U 1586.117 -1788.933 U 1551.465 -1740.271 U 1520.498 -1702.669 U 1488.057 -1656.22 U 1454.142 -1616.406 U 1422.438 -1585.44 U 1383.362 -1555.948 U 1334.7 -1514.659 U 1297.836 -1474.845 U 1224.844 -1407.343 U 1161.436 -1346.148 U 1106.139 -1284.952 U 1053.791 -1209.748 U 1001.444 -1124.96 U 974.164 -1067.451 U 966.054 -1026.654 1@10d493d5" id="object-0" transform="matrix(1, 0, 0, 1, -2.2737367544323206e-13, 0)"/></svg>